<?xml version="1.0" ?><!DOCTYPE svg  PUBLIC '-//W3C//DTD SVG 1.1//EN'  'http://www.w3.org/Graphics/SVG/1.1/DTD/svg11.dtd'><svg enable-background="new 0 0 60 60" id="Layer_1" version="1.1" viewBox="0 0 60 60" xml:space="preserve" xmlns="http://www.w3.org/2000/svg" xmlns:xlink="http://www.w3.org/1999/xlink"><g><g><g><g><path clip-rule="evenodd" d="M36.6,18.8c-0.4,0.1-1.8,0.3-3.2,1.1c-1.3,0.7-2.6,1.8-3.1,2.3      c-0.2,0.2-0.6,0.2-0.8,0l0,0c-0.4-0.4-0.6-0.5-0.6-0.5c0.1,0,0.3,0.2,0.6,0.5l0.1,0c0.2,0.2,0.5,0.1,0.6,0      c0.5-0.5,1.3-1.3,2-1.8c0.8-0.5,1.4-0.9,1.5-0.9c0.4-0.3,2-1,3.3-1.1c0.6-0.1,1.2-0.1,1.4-0.1c0.2,0,0.1,0-0.5,0      c-3,0-5.6,1.5-7.1,2.7c-0.4,0.3-0.7,0.6-1,0.9h0c-1.8-1.8-4.1-3.1-6.8-3.5c-1-0.2-2-0.1-3,0.1c-0.5,0.1-1,0.3-1.4,0.4      c-0.4,0.2-0.9,0.4-1.3,0.6c-1.7,1-3.1,2.5-4.2,4.2c-2.1,3.5-2.9,7.7-2.6,11.9c0.3,4.2,1.6,8.6,4.5,12.3c1.4,1.8,3.2,3.5,5.5,4.4      c1.1,0.5,2.4,0.8,3.6,0.8c1.3,0.1,2.6-0.2,3.8-0.7c0.4-0.1,0.7-0.3,1.1-0.5c0.3-0.2,0.7-0.2,1.1-0.1c0.4,0.1,0.7,0.3,1.1,0.5      c0.4,0.2,0.7,0.3,1.1,0.4c1.5,0.5,3.2,0.6,4.8,0.2c3.3-0.7,6-3.1,7.9-5.8c1.9-2.8,3.2-6.1,3.7-9.5c0.5-3.4,0.4-6.9-0.6-10.1      c-0.1-0.4-0.3-1-0.6-1.5c-0.1-0.3-0.2-0.6-0.4-0.9c-0.2-0.3-0.3-0.6-0.5-0.9c-0.7-1.2-1.6-2.4-2.7-3.2c-1-0.9-2.1-1.5-3-1.7      c-0.9-0.3-1.4-0.4-1.5-0.4c0.1,0,0.6,0.2,1,0.5c0.4,0.3,0.9,0.6,0.9,0.6c0,0-1-0.3-0.7-0.2c1.1,0.6,2.3,1.4,3.4,2.5      c1.1,1.1,2.1,2.5,2.7,4.1c0.8,1.9,1.3,4.1,1.3,6.3c0,0.6,0,1.1,0,1.7c0,0.6-0.1,1.2-0.1,1.7c-0.1,1.1-0.3,2.2-0.6,3.3      c-0.4,1.6-1,3.3-1.7,4.8c-0.8,1.5-1.7,2.9-2.8,4.1c-2.2,2.4-5.2,4.1-8.5,3.9c-0.7,0-1.5-0.2-2.2-0.5c-0.4-0.1-0.7-0.3-1.1-0.5      c-0.1-0.1-0.5-0.3-0.8-0.3c-0.3-0.1-0.6-0.1-0.9-0.1c-0.3,0-0.6,0.1-0.9,0.2c-0.3,0.1-0.5,0.2-0.6,0.3c-0.3,0.2-0.7,0.3-1.1,0.4      c-0.7,0.2-1.5,0.4-2.3,0.4c-3.1,0.1-6.1-1.6-8.2-4c-2.1-2.4-3.8-5.7-4.6-9.3c-0.8-3.7-0.8-7.7,0.4-11.4c0.6-1.8,1.5-3.6,2.7-5      c1.2-1.4,2.8-2.5,4.5-2.9c3.6-1,7.1,0.7,9.5,3.1l0,0c0.4,0.4,0.9,0.3,1.3,0c0.4-0.4,0.7-0.7,1.1-1c0.2-0.2,1.5-1.3,3-1.9      c1.5-0.7,3-0.8,3-0.9C37.7,18.6,36.7,18.8,36.6,18.8z M28.8,21.5c0.1,0.1-0.4-0.2-0.5-0.3C28.3,21.1,28.8,21.4,28.8,21.5z       M26.6,19.9c0.1,0.1-0.5-0.1-0.5-0.2C26,19.6,26.5,19.8,26.6,19.9z" fill-rule="evenodd"/><path clip-rule="evenodd" d="M20.9,17.1c0.1,0-0.4,0.2-0.5,0.2C20.2,17.3,20.8,17.1,20.9,17.1z" fill-rule="evenodd"/><path clip-rule="evenodd" d="M15.2,19.7c0.3-0.2,0.5-0.4,0.7-0.6c0.2-0.2,0.5-0.3,0.8-0.5      C19.9,16.9,16.4,18.7,15.2,19.7z" fill-rule="evenodd"/><path clip-rule="evenodd" d="M15.2,19.7c-2.4,2-3.8,4.8-4.6,7.5c-0.8,2.7-1,5.5-0.8,8.2l0.1,1      c0,0.4,0.1,0.7,0.1,1l0.1,0.9l0.2,1c0.1,0.6,0.3,1.3,0.5,1.9c0.2,0.6,0.4,1.2,0.6,1.8c0.9,2.3,2.1,4.5,3.7,6.3      c0.2,0.2,0.6,0.6,0.2,0.3c-0.8-0.6-1.6-1.8-2.4-3c-0.7-1.3-1.3-2.6-1.7-3.7c-0.4-0.9-0.6-1.8-0.9-2.8c-0.1-0.5-0.2-1-0.3-1.5      c-0.1-0.5-0.2-1-0.2-1.5c-0.3-2.2-0.3-4.3,0-6.5c0.3-2.2,0.9-4.3,1.8-6.1C12.6,22.4,13.8,20.8,15.2,19.7z" fill-rule="evenodd"/><path clip-rule="evenodd" d="M39.1,18.8C39.2,18.8,38.9,18.7,39.1,18.8L39.1,18.8z" fill-rule="evenodd"/><path clip-rule="evenodd" d="M15.8,50c0-0.1,0.1,0.1,0.4,0.3c0.3,0.3,0.7,0.6,1.1,0.9      c0.8,0.6,1.4,1,0.3,0.3C17.7,51.7,15.9,50.3,15.8,50z" fill-rule="evenodd"/><path clip-rule="evenodd" d="M18.4,52.2c-0.1-0.1,1.4,0.7,2.6,1.2c1.3,0.4,2.2,0.6,0.5,0.2      c0,0-0.2,0-0.5-0.1c-0.3-0.1-0.7-0.3-1.1-0.4C19.2,52.8,18.5,52.3,18.4,52.2z" fill-rule="evenodd"/><path clip-rule="evenodd" d="M22.8,54c0,0,0.3,0,0.8,0.1c0.5,0,1.2,0,1.8-0.1c1.3-0.2,2.6-0.7,3-0.8      c-0.1,0-1.2,0.6-2.5,0.8c-0.6,0.1-1.3,0.1-1.9,0.2C23.5,54.1,23,54,22.8,54z" fill-rule="evenodd"/><path clip-rule="evenodd" d="M29.3,52.8C29.2,52.9,29.6,52.8,29.3,52.8L29.3,52.8z" fill-rule="evenodd"/><path clip-rule="evenodd" d="M31.5,53.2c-0.2-0.1,0.8,0.3,1.6,0.4c0.7,0.1,1.1,0.3-0.3,0      C32.5,53.6,31.5,53.3,31.5,53.2z" fill-rule="evenodd"/><path clip-rule="evenodd" d="M34.6,54L34.6,54L34.6,54L34.6,54L34.6,54l0.2,0l0,0c0,0,0.1,0,0.2,0      c0.1,0,0.3,0,0.4,0c0.3,0,0.6,0,1.1-0.2c0.4-0.1,0.8-0.2,1.2-0.3c0.3-0.1,0.6-0.2,0.7-0.2c-0.2,0-0.7,0.3-1.6,0.5      c-0.2,0-0.4,0.1-0.6,0.1c-0.2,0-0.4,0-0.5,0c-0.2,0-0.3,0-0.5,0c-0.1,0-0.1,0-0.2,0l-0.1,0l0,0L34.6,54L34.6,54L34.6,54L34.6,54      z" fill-rule="evenodd"/><path clip-rule="evenodd" d="M39.3,18.2c0.1,0.1-0.5,0.1-0.6,0C38.6,18.2,39.2,18.2,39.3,18.2z" fill-rule="evenodd"/><path clip-rule="evenodd" d="M39,53.4c-0.2,0,1.3-0.6,2.2-1.2c0.5-0.3,0.8-0.5,0.8-0.5c0,0-0.1,0.1-0.3,0.2      c-0.2,0.2-0.5,0.4-1,0.7C40.2,52.9,39.2,53.4,39,53.4z" fill-rule="evenodd"/><path clip-rule="evenodd" d="M42.5,51.4c-0.1,0,0.2-0.2,0.6-0.6c0.4-0.3,0.9-0.8,1.2-1.2      c0.7-0.8,1.1-1.2-0.4,0.5C43.5,50.6,42.7,51.4,42.5,51.4z" fill-rule="evenodd"/><path clip-rule="evenodd" d="M45.2,48.9c-0.1,0.1,0.9-1.2,1.5-2.3c0.6-1.1,1.1-1.9,0.3-0.4      c0,0.1-0.4,0.7-0.8,1.4C45.9,48.2,45.3,48.8,45.2,48.9z" fill-rule="evenodd"/><path clip-rule="evenodd" d="M48,44.5c0,0,0.2-0.4,0.4-0.9c0.2-0.5,0.4-1.2,0.6-1.9      c0.4-1.4,0.6-2.9,0.8-3.2c-0.1,0.1-0.2,1.5-0.6,2.9c-0.1,0.7-0.4,1.4-0.6,2C48.3,43.9,48.1,44.4,48,44.5z" fill-rule="evenodd"/><path clip-rule="evenodd" d="M50.1,37.4c0,0,0-0.3,0.1-0.9c0-0.5,0-1.1,0-1.8c0-0.7-0.1-1.4-0.1-2      c-0.1-0.6-0.1-1,0-1.2c0,0.1,0.2,1.4,0.3,2.8c0.1,0.7,0,1.3,0,1.9C50.3,36.7,50.2,37.1,50.1,37.4z" fill-rule="evenodd"/><path clip-rule="evenodd" d="M46.2,21.5c-0.1-0.3-0.7-0.8-1.3-1.2c-0.6-0.4-1.3-0.9-1.5-1.1      c0.2,0.1,0.7,0.4,1.3,0.8C45.4,20.5,46.1,21,46.2,21.5z" fill-rule="evenodd"/></g></g></g><g><g><g><path clip-rule="evenodd" d="M29.4,21.5c0-0.2,0.1-1.2,0.1-1.2c0.1,0.1,0.2,0.8,0.2,0.8      c0,0.2,0.3,1,0.2,0.7c-0.1-0.4,0.1-0.9,0.1-1.1c0.1-0.4-0.1-0.9,0-1.3c0.3-2.3,1-4.5,2.5-7.1c0.9-1.5,2.2-3.1,3.8-4.3      c0.4-0.4,1.4-1.3,1.4-1.4c0,0.1-0.5-0.2-0.5-0.1c0,0,0.1-0.2,0.1-0.2c-0.5-0.1-0.9,0.5-1.3,0.9c-0.5,0.5-1.2,0.8-1.7,1.3      c-1.5,1.5-2.8,3.2-3.7,5.1c-0.5,1-0.9,2.2-1.2,3.4c-0.3,1.3-0.4,2.6-0.3,3.7c0,0.1,0.1,1.1,0.2,1.1      C29.4,21.7,29.4,21.5,29.4,21.5z M29.5,20.2c0,0-0.1-0.1-0.1-0.1C29.4,20.1,29.5,20.2,29.5,20.2z M29.5,19.8      c0,0-0.1-0.1-0.1-0.1C29.5,19.7,29.6,19.8,29.5,19.8z" fill-rule="evenodd"/><path clip-rule="evenodd" d="M31.1,19.1C31.1,19.1,31,19,31.1,19.1C31.1,19,31.1,19.1,31.1,19.1z" fill-rule="evenodd"/><path clip-rule="evenodd" d="M31.2,18.3c0,0.1,0,0.2,0,0.2C31.2,19,31,18.5,31.2,18.3z" fill-rule="evenodd"/><path clip-rule="evenodd" d="M31.2,18.3c0.3-1.5,0.4-3,1.2-4c0,0,0.1-0.1,0.1,0c0.1,0.3-0.4,0.6-0.5,0.9      C31.6,16.1,31.6,17.5,31.2,18.3z" fill-rule="evenodd"/><path clip-rule="evenodd" d="M37.8,6.4C37.8,6.4,37.9,6.5,37.8,6.4L37.8,6.4z" fill-rule="evenodd"/><path clip-rule="evenodd" d="M32.6,14.3c-0.1,0,0.1-0.6,0.1-0.3C32.7,14,32.7,14.3,32.6,14.3z" fill-rule="evenodd"/><path clip-rule="evenodd" d="M32.8,13.9c-0.1,0,0.2-0.8,0.1-0.4C32.9,13.5,32.9,13.9,32.8,13.9z" fill-rule="evenodd"/><path clip-rule="evenodd" d="M33.1,13.4c0,0-0.1-0.7,0.1-0.7C33.2,12.7,33.3,13.4,33.1,13.4z" fill-rule="evenodd"/><path clip-rule="evenodd" d="M33.4,12.6C33.3,12.6,33.4,12.6,33.4,12.6L33.4,12.6z" fill-rule="evenodd"/><path clip-rule="evenodd" d="M33.6,12.3c-0.1,0,0.2-0.5,0.1-0.1C33.7,12.1,33.6,12.3,33.6,12.3z" fill-rule="evenodd"/><path clip-rule="evenodd" d="M33.8,12c0.2,0-0.1-0.5,0.1-0.5C33.9,11.5,34.1,12,33.8,12z" fill-rule="evenodd"/><path clip-rule="evenodd" d="M38,7c0,0,0-0.2,0-0.1C38.1,6.9,38,7,38,7z" fill-rule="evenodd"/><path clip-rule="evenodd" d="M34.1,11.5c-0.1,0,0.4-0.7,0.1-0.2C34.2,11.4,34.2,11.5,34.1,11.5z" fill-rule="evenodd"/><path clip-rule="evenodd" d="M34.5,11.1c-0.1,0,0.4-0.7,0.1-0.2C34.6,11,34.5,11.2,34.5,11.1z" fill-rule="evenodd"/><path clip-rule="evenodd" d="M34.8,10.8c-0.1,0,0.4-0.8,0.2-0.4C35,10.5,34.8,10.8,34.8,10.8z" fill-rule="evenodd"/><path clip-rule="evenodd" d="M35.2,10.3c0,0,0.2-0.8,0.4-0.7C35.5,9.6,35.4,10.4,35.2,10.3z" fill-rule="evenodd"/><path clip-rule="evenodd" d="M35.8,9.6c0,0,0.3-0.7,0.5-0.6C36.2,9,36.1,9.7,35.8,9.6z" fill-rule="evenodd"/><path clip-rule="evenodd" d="M37.4,8.2c0.1,0.1,0.2-0.5,0.3-0.4C37.7,7.7,37.7,8.3,37.4,8.2z" fill-rule="evenodd"/></g></g></g><g><g><g><path clip-rule="evenodd" d="M22.1,8.9c0,0.1,0,0.2,0,0.4c0,0.2,0,0.4,0.1,0.6c0,0.2,0,0.4,0.1,0.5      c0,0.1,0.1,0.2,0.1,0.2c-0.1,0-0.2-0.3-0.3-0.5c-0.1-0.3-0.1-0.5-0.2-0.5c-0.1-0.2-0.4-1.6-0.3-1c0.1,0.7,0,1.3,0.1,1.7      c0.1,0.7,0.5,1.3,0.8,1.9c0.7,1.4,1.7,2.6,3,3.6c1.3,0.9,3,1.6,5,1.6c0,0,0,0,0.1,0v0c0-0.5,0-1.1-0.2-1.8      c-0.3-1.4-0.9-2.8-1.9-3.9c-1-1.1-2.3-2.1-3.8-2.5c-0.4-0.1-1.1-0.2-1.7-0.2c-0.6,0-1.1,0.1-1.1,0.2c0-0.1,0.5,0.4,0.5,0.4      c0,0-0.2,0.1-0.2,0.1c0.5,0.3,1.3,0.1,2,0.3c0.9,0.2,1.7,0.7,2.5,1.3c2,1.4,3.1,3.9,3,6.3l0.9-0.9c-0.4,0-0.8,0-1.1-0.1      c-1.4-0.2-3-0.9-4.2-2.1c-0.6-0.6-1.2-1.2-1.6-2c-0.4-0.7-0.7-1.4-1-2.1c0-0.1-0.1-0.4-0.2-0.7c-0.1-0.4-0.2-0.7-0.2-0.7      C22,8.7,22.1,8.9,22.1,8.9z M22.3,10.7c0,0,0.2,0.1,0.1,0.1C22.4,10.9,22.3,10.8,22.3,10.7z M22.5,11.3c0,0,0.2,0,0.1,0.1      C22.6,11.5,22.4,11.4,22.5,11.3z" fill-rule="evenodd"/><path clip-rule="evenodd" d="M21.7,13.2c0-0.1,0.2,0,0.2,0.1C21.8,13.3,21.7,13.3,21.7,13.2z" fill-rule="evenodd"/><path clip-rule="evenodd" d="M22.5,14.4c-0.1-0.1-0.2-0.2-0.3-0.3C21.7,13.4,22.4,14,22.5,14.4z" fill-rule="evenodd"/><path clip-rule="evenodd" d="M22.5,14.4c0.8,1.2,1.9,2,3.1,2.6c1.1,0.6,2.3,0.9,3.4,1.3      c0.1,0,0.2,0.1,0.1,0.1c-0.5,0.2-1.3-0.3-1.8-0.5c-0.9-0.3-1.8-0.8-2.7-1.4C23.6,15.9,22.9,15.1,22.5,14.4z" fill-rule="evenodd"/><path clip-rule="evenodd" d="M21.5,9.1C21.5,9.2,21.5,9.1,21.5,9.1L21.5,9.1z" fill-rule="evenodd"/><path clip-rule="evenodd" d="M29.1,18.5c-0.1-0.1,1.2-0.1,0.6,0C29.7,18.5,29.2,18.6,29.1,18.5z" fill-rule="evenodd"/><path clip-rule="evenodd" d="M29.9,18.5c0,0,0.2-0.1,0.4-0.1l0.2,0c0.5,0,0.9-0.5,0.8-0.9l0-0.1      c-0.1-0.4-0.1-0.8,0-0.4c0,0,0,0.2,0.1,0.4c0.1,0.5-0.2,1-0.7,1.1c0,0-0.1,0-0.1,0l-0.3,0C30.2,18.6,29.9,18.6,29.9,18.5z" fill-rule="evenodd"/><path clip-rule="evenodd" d="M31.5,16.8c0,0-0.5-1.1-0.4-1.3C31.1,15.5,31.7,16.5,31.5,16.8z" fill-rule="evenodd"/><path clip-rule="evenodd" d="M31.1,15.3C31.1,15.3,31.2,15.2,31.1,15.3L31.1,15.3z" fill-rule="evenodd"/><path clip-rule="evenodd" d="M30.9,14.5c-0.1,0.1-0.5-0.8-0.1-0.3C30.8,14.3,31,14.5,30.9,14.5z" fill-rule="evenodd"/><path clip-rule="evenodd" d="M30.7,13.8c0.1-0.2-0.6-0.5-0.5-0.7C30.2,13.2,30.9,13.5,30.7,13.8z" fill-rule="evenodd"/><path clip-rule="evenodd" d="M21.5,8.6c0,0-0.1,0.1-0.1,0.1C21.4,8.6,21.5,8.5,21.5,8.6z" fill-rule="evenodd"/><path clip-rule="evenodd" d="M30.3,12.9c0,0.1-0.9-1.2-0.2-0.4C30.2,12.6,30.3,12.8,30.3,12.9z" fill-rule="evenodd"/><path clip-rule="evenodd" d="M29.8,12.1c0,0.1-1-1.1-0.3-0.3C29.7,11.8,29.9,12,29.8,12.1z" fill-rule="evenodd"/><path clip-rule="evenodd" d="M29.4,11.3c0,0.1-1.2-1-0.6-0.6C28.8,10.8,29.4,11.2,29.4,11.3z" fill-rule="evenodd"/><path clip-rule="evenodd" d="M28.5,10.4c0-0.1-1.3-0.6-1.3-0.8C27.3,9.7,28.6,10.1,28.5,10.4z" fill-rule="evenodd"/><path clip-rule="evenodd" d="M27.1,9.3c0-0.1-1.3-0.3-1.3-0.5C25.8,8.8,27.1,9,27.1,9.3z" fill-rule="evenodd"/><path clip-rule="evenodd" d="M23.4,8c-0.1-0.2-0.7,0.2-0.8,0C22.6,8.1,23.2,7.7,23.4,8z" fill-rule="evenodd"/></g></g></g></g></svg>