<?xml version="1.0" ?><svg enable-background="new 0 0 792 612" id="Layer_2" version="1.1" viewBox="0 0 792 612" xml:space="preserve" xmlns="http://www.w3.org/2000/svg" xmlns:xlink="http://www.w3.org/1999/xlink"><g><path d="M584.8,328.7c0,5.5-4.5,10-10,10H249.7c-5.5,0-10-4.5-10-10V110c0-5.5,4.5-10,10-10h325.1c5.5,0,10,4.5,10,10V328.7z"/></g><rect fill="#FFFFFF" height="194" width="309" x="257.8" y="116.5"/><path d="M187.5,320.5v14c0,0,11.5,9.5,28.5,9h396c0,0,15.5-0.5,25-8.5v-14.5" fill="#C6C6C5"/><path d="M378.2,320.5c0,0-0.9,4.3,1.7,6.3c1.2,0.9,3,0.7,5.5,0.7h56.5c0,0,5.5,0,4.5-7" fill="#727373"/><rect height="1.8" width="17.2" x="572.3" y="330.8"/><circle cx="412.3" cy="109.2" fill="#606061" r="1.9"/></svg>