<?xml version="1.0" ?><!DOCTYPE svg  PUBLIC '-//W3C//DTD SVG 1.1//EN'  'http://www.w3.org/Graphics/SVG/1.1/DTD/svg11.dtd'><svg height="43.3492mm" style="shape-rendering:geometricPrecision; text-rendering:geometricPrecision; image-rendering:optimizeQuality; fill-rule:evenodd; clip-rule:evenodd" version="1.1" viewBox="0 0 4335 4335" width="43.3492mm" xml:space="preserve" xmlns="http://www.w3.org/2000/svg" xmlns:xlink="http://www.w3.org/1999/xlink"><defs><style type="text/css">
   <![CDATA[
    .fil1 {fill:#2B2A29}
    .fil0 {fill:#2B2A29;fill-rule:nonzero}
   ]]>
  </style></defs><g id="Слой_x0020_1"><path class="fil0" d="M1560 2185l0 -28c0,-201 54,-367 163,-498 109,-130 257,-195 445,-195 188,0 336,64 446,195 109,130 164,296 164,498l0 28c0,203 -55,370 -163,499 -110,130 -258,194 -445,194 -189,0 -338,-65 -447,-194 -109,-130 -163,-296 -163,-499zm248 0c0,144 30,262 91,356 61,94 151,141 271,141 118,0 207,-47 268,-141 62,-94 92,-212 92,-356l0 -28c0,-142 -30,-261 -92,-355 -61,-95 -151,-142 -270,-142 -120,0 -209,47 -270,142 -60,94 -90,213 -90,355l0 28z"/><path class="fil1" d="M464 100l3410 0c201,0 366,164 366,366l0 3410c0,201 -165,366 -366,366l-3410 0c-201,0 -366,-165 -366,-366l0 -3410c0,-202 165,-366 366,-366zm155 189l3100 0c183,0 332,149 332,332l0 3100c0,182 -149,332 -332,332l-3100 0c-183,0 -332,-150 -332,-332l0 -3100c0,-183 149,-332 332,-332z"/></g></svg>