<?xml version="1.0" encoding="UTF-8"?>
<svg width="25px" height="22px" viewBox="0 0 25 22" version="1.1" xmlns="http://www.w3.org/2000/svg" xmlns:xlink="http://www.w3.org/1999/xlink">
    <!-- Generator: Sketch 45.1 (43504) - http://www.bohemiancoding.com/sketch -->
    <title>wesat</title>
    <desc>Created with Sketch.</desc>
    <defs></defs>
    <g id="Page-1" stroke="none" stroke-width="1" fill="none" fill-rule="evenodd">
        <g id="if_Checkmark-Webpage_2154866" fill-rule="nonzero" fill="#494B4C">
            <path d="M25,2 L25,20 C25,21.1045695 24.1045695,22 23,22 L2,22 C0.8954305,22 1.3527075e-16,21.1045695 0,20 L0,2 C-1.3527075e-16,0.8954305 0.8954305,2.22044605e-16 2,0 L23,0 C24.1045695,0 25,0.8954305 25,2 Z M24,6 L1,6 L1,20 C1,20.5522847 1.44771525,21 2,21 L23,21 C23.5522847,21 24,20.5522847 24,20 L24,6 Z M24,2 C24,1.44771525 23.5522847,1 23,1 L2,1 C1.44771525,1 1,1.44771525 1,2 L1,5 L24,5 L24,2 Z M3.5,2 L2.5,2 C2.22385763,2 2,2.22385763 2,2.5 L2,3.5 C2,3.77614237 2.22385763,4 2.5,4 L3.5,4 C3.77614237,4 4,3.77614237 4,3.5 L4,2.5 C4,2.22385763 3.77614237,2 3.5,2 Z M6.5,2 L5.5,2 C5.22385763,2 5,2.22385763 5,2.5 L5,3.5 C5,3.77614237 5.22385763,4 5.5,4 L6.5,4 C6.77614237,4 7,3.77614237 7,3.5 L7,2.5 C7,2.22385763 6.77614237,2 6.5,2 Z M9.5,2 L8.5,2 C8.22385763,2 8,2.22385763 8,2.5 L8,3.5 C8,3.77614237 8.22385763,4 8.5,4 L9.5,4 C9.77614237,4 10,3.77614237 10,3.5 L10,2.5 C10,2.22385763 9.77614237,2 9.5,2 Z" id="Shape"></path>
        </g>
        <g id="logo-black" transform="translate(5.117023, 6.366184)" fill-opacity="0.645323822" fill-rule="nonzero" fill="#000000">
            <path d="M7.12016945,0 L14.2396396,13.7952835 L0,13.7952835 L7.12016945,0 Z M4.28203057,9.09009058 L9.95830826,9.09009058 L7.12016945,3.59237201 L4.28203057,9.09009058 Z" id="Shape"></path>
        </g>
    </g>
</svg>