<?xml version="1.0" ?><!DOCTYPE svg  PUBLIC '-//W3C//DTD SVG 1.1//EN'  'http://www.w3.org/Graphics/SVG/1.1/DTD/svg11.dtd'><svg enable-background="new 0 0 48 48" id="Layer_1" version="1.1" viewBox="0 0 48 48" xml:space="preserve" xmlns="http://www.w3.org/2000/svg" xmlns:xlink="http://www.w3.org/1999/xlink"><g><g><path d="M38.1,46.5H9.9c-1.7,0-3-1.3-3-3v-39    c0-1.7,1.3-3,3-3h28.2c1.7,0,3,1.3,3,3v39C41.1,45.2,39.8,46.5,38.1,46.5z" fill="none" stroke="#010101" stroke-miterlimit="10" stroke-width="2"/><rect fill="none" height="19.6" stroke="#010101" stroke-miterlimit="10" stroke-width="2" width="34.2" x="6.9" y="9.3"/><g><line fill="none" stroke="#010101" stroke-miterlimit="10" stroke-width="2" x1="11.2" x2="11.2" y1="32.4" y2="34.3"/><line fill="none" stroke="#010101" stroke-miterlimit="10" stroke-width="2" x1="15.4" x2="15.4" y1="32.4" y2="34.3"/><line fill="none" stroke="#010101" stroke-miterlimit="10" stroke-width="2" x1="19.7" x2="19.7" y1="32.4" y2="34.3"/><line fill="none" stroke="#010101" stroke-miterlimit="10" stroke-width="2" x1="24" x2="24" y1="32.4" y2="34.3"/><line fill="none" stroke="#010101" stroke-miterlimit="10" stroke-width="2" x1="28.3" x2="28.3" y1="32.4" y2="34.3"/><line fill="none" stroke="#010101" stroke-miterlimit="10" stroke-width="2" x1="32.6" x2="32.6" y1="32.4" y2="34.3"/><line fill="none" stroke="#010101" stroke-miterlimit="10" stroke-width="2" x1="36.8" x2="36.8" y1="32.4" y2="34.3"/></g><g><line fill="none" stroke="#010101" stroke-miterlimit="10" stroke-width="2" x1="11.2" x2="11.2" y1="36.8" y2="38.7"/><line fill="none" stroke="#010101" stroke-miterlimit="10" stroke-width="2" x1="15.4" x2="15.4" y1="36.8" y2="38.7"/><line fill="none" stroke="#010101" stroke-miterlimit="10" stroke-width="2" x1="19.7" x2="19.7" y1="36.8" y2="38.7"/><line fill="none" stroke="#010101" stroke-miterlimit="10" stroke-width="2" x1="24" x2="24" y1="36.8" y2="38.7"/><line fill="none" stroke="#010101" stroke-miterlimit="10" stroke-width="2" x1="28.3" x2="28.3" y1="36.8" y2="38.7"/><line fill="none" stroke="#010101" stroke-miterlimit="10" stroke-width="2" x1="32.6" x2="32.6" y1="36.8" y2="38.7"/><line fill="none" stroke="#010101" stroke-miterlimit="10" stroke-width="2" x1="36.8" x2="36.8" y1="36.8" y2="38.7"/></g><g><line fill="none" stroke="#010101" stroke-miterlimit="10" stroke-width="2" x1="11.2" x2="11.2" y1="41.2" y2="43.2"/><line fill="none" stroke="#010101" stroke-miterlimit="10" stroke-width="2" x1="17.6" x2="17.6" y1="41.2" y2="43.2"/><line fill="none" stroke="#010101" stroke-miterlimit="10" stroke-width="2" x1="30.4" x2="30.4" y1="41.2" y2="43.2"/><line fill="none" stroke="#010101" stroke-miterlimit="10" stroke-width="2" x1="36.8" x2="36.8" y1="41.2" y2="43.2"/><line fill="none" stroke="#010101" stroke-miterlimit="10" stroke-width="2" x1="22" x2="26" y1="42.2" y2="42.2"/></g></g><line fill="none" stroke="#010101" stroke-miterlimit="10" stroke-width="2" x1="27.9" x2="20.1" y1="5.4" y2="5.4"/></g></svg>