<?xml version="1.0" ?><!DOCTYPE svg  PUBLIC '-//W3C//DTD SVG 1.1//EN'  'http://www.w3.org/Graphics/SVG/1.1/DTD/svg11.dtd'><svg clip-rule="evenodd" fill-rule="evenodd" font-size="0" height="512px" image-rendering="optimizeQuality" preserveAspectRatio="xMidYMid" shape-rendering="geometricPrecision" text-rendering="geometricPrecision" version="1.1" viewBox="0, 0, 512000, 512000" width="512px" xml:space="preserve" xmlns="http://www.w3.org/2000/svg" xmlns:xlink="http://www.w3.org/1999/xlink" xmlns:xml="http://www.w3.org/XML/1998/namespace"><g><path d="M37849 5849 L474152 5849 C491753 5849 506152 20248 506152 37849 L506152 474152 C506152 491753 491753 506152 474152 506152 L37849 506152 C20248 506152 5849 491753 5849 474152 L5849 37849 C5849 20248 20248 5849 37849 5849 z M47715 17162 L464286 17162 C481091 17162 494839 30910 494839 47715 L494839 464286 C494839 481091 481091 494839 464286 494839 L47715 494839 C30910 494839 17162 481091 17162 464286 L17162 47715 C17162 30910 30910 17162 47715 17162 z" style="fill:#000000;"/></g><g><path d="M183417 260951 C183477 275316 185643 287748 189915 298250 C194248 308902 200207 317705 207790 324656 C215374 331608 224266 336754 234468 340094 C244669 343434 255548 345104 267103 345104 C275951 345104 284122 343840 291614 341313 C299107 338784 305607 335761 311114 332240 C316620 328719 320909 324973 323979 321001 C327049 317029 328583 313598 328583 310709 L328583 281188 L284707 281188 C283443 281188 282360 280827 281458 280104 C279471 278840 278478 276674 278478 273604 C278478 270715 279471 268639 281458 267375 C282360 266653 283443 266292 284707 266292 L339416 266292 C343028 266292 344833 268098 344833 271709 L344833 310709 C344833 315404 342801 320640 338740 326418 C334677 332196 329080 337613 321948 342668 C314816 347724 306465 351922 296896 355262 C287327 358602 277035 360272 266021 360272 C252480 360272 239705 358151 227698 353907 C215692 349664 205219 343344 196282 334949 C187345 326553 180258 316126 175021 303667 C169785 291209 167168 276764 167168 260333 C167168 258866 167186 257417 167219 255982 C167185 254559 167168 253120 167168 251666 C167168 235236 169785 220791 175021 208332 C180258 195874 187345 185447 196282 177050 C205219 168655 215692 162335 227698 158092 C239705 153848 252480 151727 266021 151727 C277035 151727 287327 153397 296896 156737 C306465 160077 314817 164275 321948 169331 C329080 174386 334677 179803 338740 185581 C342802 191359 344833 196595 344833 201290 L344833 217822 L344833 218228 L344822 218228 C344609 222429 341107 225799 336855 225799 L336854 225799 C332602 225799 329100 222429 328887 218228 L328582 218228 L328582 216050 L328582 201290 C328582 198401 327048 194970 323978 190998 C320908 187026 316620 183279 311113 179759 C305606 176238 299106 173214 291613 170686 C284120 168158 275949 166895 267102 166895 C255547 166895 244668 168565 234467 171905 C224266 175245 215373 180391 207789 187343 C200206 194294 194248 203097 189914 213749 C185581 224401 183414 237040 183414 251666 C183414 252753 183423 253829 183442 254893 L183494 254893 L183464 255988 C183503 257670 183567 259323 183652 260951 L183415 260951 z" style="fill:#000000;"/></g></svg>