<?xml version="1.0" ?><!DOCTYPE svg  PUBLIC '-//W3C//DTD SVG 1.1//EN'  'http://www.w3.org/Graphics/SVG/1.1/DTD/svg11.dtd'><svg enable-background="new 0 0 20 20" id="Layer_1" version="1.1" viewBox="0 0 20 20" xml:space="preserve" xmlns="http://www.w3.org/2000/svg" xmlns:xlink="http://www.w3.org/1999/xlink"><g><rect fill="#2B2A3D" height="8" width="2" x="9" y="8"/><rect fill="#2B2A3D" height="2" width="2" x="9" y="4"/><path d="M17,0H3C1.3,0,0,1.3,0,3v14c0,1.7,1.3,3,3,3h14c1.7,0,3-1.3,3-3V3C20,1.3,18.7,0,17,0z M18,17   c0,0.6-0.4,1-1,1H3c-0.6,0-1-0.4-1-1V3c0-0.6,0.4-1,1-1h14c0.6,0,1,0.4,1,1V17z" fill="#2B2A3D"/></g></svg>