<?xml version="1.0" ?><svg height="100" id="svg2" version="1.1" width="100" xmlns="http://www.w3.org/2000/svg" xmlns:cc="http://creativecommons.org/ns#" xmlns:dc="http://purl.org/dc/elements/1.1/" xmlns:inkscape="http://www.inkscape.org/namespaces/inkscape" xmlns:rdf="http://www.w3.org/1999/02/22-rdf-syntax-ns#" xmlns:sodipodi="http://sodipodi.sourceforge.net/DTD/sodipodi-0.dtd" xmlns:svg="http://www.w3.org/2000/svg"><defs id="defs4"/><g id="layer1" transform="translate(0,-952.36218)"><path d="m 5.1020429,1027.0567 c 5.6122441,3.3673 11.2244891,3.3673 28.0612231,3.3673 l 33.673468,0 c 16.836734,0 22.448979,0 28.061223,-3.3673 z" id="path3780" style="color:#000000;fill:#000000;fill-opacity:1;stroke:none;stroke-width:1px;marker:none;visibility:visible;display:inline;overflow:visible;enable-background:accumulate"/><path d="m 21.9375,974.30032 c -4.489796,0 -5.625,1.1352 -5.625,5.625 l 0,46.74998 67.375,0 0,-46.74998 c 0,-4.4898 -1.135204,-5.625 -5.625,-5.625 z M 50,975.42532 c 0.619912,0 1.125,0.50507 1.125,1.125 0,0.61993 -0.505088,1.125 -1.125,1.125 -0.619912,0 -1.125,-0.50507 -1.125,-1.125 0,-0.61993 0.505088,-1.125 1.125,-1.125 z m -31.4375,3.375 62.875,0 0,44.87498 -62.875,0 z" id="path3784" style="color:#000000;fill:#000000;fill-opacity:1;stroke:none;stroke-width:1px;marker:none;visibility:visible;display:inline;overflow:visible;enable-background:accumulate"/></g></svg>