<?xml version="1.0" ?><!DOCTYPE svg  PUBLIC '-//W3C//DTD SVG 1.1//EN'  'http://www.w3.org/Graphics/SVG/1.1/DTD/svg11.dtd'><svg clip-rule="evenodd" fill-rule="evenodd" height="512px" image-rendering="optimizeQuality" shape-rendering="geometricPrecision" text-rendering="geometricPrecision" version="1.1" viewBox="0 0 2835766 2863269" width="507px" xml:space="preserve" xmlns="http://www.w3.org/2000/svg" xmlns:xlink="http://www.w3.org/1999/xlink"><g id="__x0023_Layer_x0020_1"><path d="M2677270 170253l-1206005 169817 0 888755 1206005 -17411 0 -1041161zm-1296085 22821l1358794 -191337c5336,-1136 10865,-1737 16539,-1737 43765,0 79248,35483 79248,79248l0 1209968 -317 0c6,43170 -34723,78428 -78000,78937l-1357294 19597c-2675,271 -5390,417 -8138,417 -43765,0 -79248,-35476 -79248,-79248l0 -1037529 185 0c-46,-38904 28627,-72847 68231,-78316zm90080 1442374l0 887923 1206005 169824 0 -1041109 -1206005 -16638zm-158496 956609l0 -1036649 317 0 0 -932c509,-43587 36269,-78515 79863,-77999l1357677 18732c1948,-146 3910,-218 5892,-218 43765,0 79248,35476 79248,79241l0 1209961 -185 0c-7,3580 -245,7193 -747,10832 -5977,43251 -45898,73462 -89149,67485l-1359355 -191416c-41110,-2919 -73561,-37187 -73561,-79037zm-269884 -2189397l-884396 124526 0 718912 884396 -12193 0 -831245zm-974476 -22477l1037185 -146032c5337,-1136 10865,-1738 16539,-1738 43765,0 79248,35483 79248,79248l0 1000098 -317 0c7,43171 -34723,78429 -78000,78937l-1035731 14274c-2662,271 -5357,416 -8092,416 -43765,0 -79241,-35483 -79241,-79248l0 -867639 178 0c-46,-38897 28627,-72841 68231,-78316zm90080 1237174l0 719480 884396 124525 0 -831812 -884396 -12193zm-158489 788166l0 -868207 310 0 0 -925c509,-43593 36269,-78521 79863,-78006l1036068 14280c1949,-138 3911,-217 5892,-217 43765,0 79248,35482 79248,79247l0 1000672 -185 0c-7,3574 -244,7187 -746,10833 -5978,43243 -45899,73462 -89149,67484l-1037747 -146124c-41110,-2920 -73554,-37187 -73554,-79037z" fill="black" fill-rule="nonzero"/></g></svg>